<svg width="86" height="86" viewBox="0 0 86 86" fill="none" xmlns="http://www.w3.org/2000/svg">
<path d="M75.9188 70.3482C80.317 65.0565 83.3759 58.7834 84.8369 52.0595C86.2978 45.3356 86.1179 38.3587 84.3122 31.7191C82.5065 25.0795 79.1282 18.9724 74.4631 13.9145C69.798 8.85665 63.9833 4.99676 57.5109 2.66139C51.0386 0.32602 44.099 -0.416131 37.2791 0.497718C30.4593 1.41157 23.9599 3.95454 18.3307 7.9115C12.7015 11.8685 8.10817 17.123 4.93923 23.2306C1.77029 29.3383 0.11899 36.1193 0.125016 43.0001C0.127591 53.0027 3.65247 62.685 10.0812 70.3482L10.02 70.4003C10.2343 70.6575 10.4793 70.878 10.6998 71.1322C10.9755 71.4476 11.2725 71.7447 11.5573 72.0509C12.4107 72.984 13.2989 73.8721 14.2217 74.7153C14.5075 74.9685 14.7934 75.2155 15.0792 75.4565C16.0592 76.3037 17.0698 77.102 18.1111 77.8513C18.2458 77.9432 18.3683 78.0626 18.5031 78.1576V78.1208C25.6756 83.1688 34.2323 85.878 43.0031 85.878C51.7739 85.878 60.3306 83.1688 67.5031 78.1208V78.1576C67.6378 78.0626 67.7573 77.9432 67.8951 77.8513C68.9363 77.1 69.947 76.3017 70.927 75.4565C71.2128 75.2135 71.4986 74.9665 71.7845 74.7153C72.7052 73.8721 73.5934 72.984 74.4488 72.0509C74.7336 71.7447 75.0276 71.4476 75.3063 71.1322C75.5238 70.878 75.7718 70.6575 75.9862 70.3972L75.9188 70.3482ZM43 18.5001C45.7257 18.5001 48.3902 19.3083 50.6565 20.8226C52.9228 22.3369 54.6892 24.4893 55.7322 27.0075C56.7753 29.5257 57.0482 32.2966 56.5165 34.9699C55.9847 37.6432 54.6722 40.0988 52.7448 42.0261C50.8175 43.9535 48.3619 45.266 45.6886 45.7978C43.0153 46.3295 40.2444 46.0566 37.7262 45.0135C35.208 43.9705 33.0556 42.2041 31.5413 39.9378C30.027 37.6715 29.2188 35.007 29.2188 32.2813C29.2188 28.6263 30.6707 25.121 33.2552 22.5365C35.8397 19.952 39.345 18.5001 43 18.5001ZM18.5215 70.3482C18.5746 66.327 20.2087 62.4885 23.0704 59.6629C25.932 56.8374 29.791 55.2521 33.8125 55.2501H52.1875C56.209 55.2521 60.068 56.8374 62.9297 59.6629C65.7913 62.4885 67.4255 66.327 67.4786 70.3482C60.762 76.4007 52.0413 79.7503 43 79.7503C33.9587 79.7503 25.238 76.4007 18.5215 70.3482Z" fill="#AFAFAF"/>
</svg>
